<svg xmlns="http://www.w3.org/2000/svg" viewBox="0 0 1200 800" role="img" aria-labelledby="title desc">
  <title id="title">Verified M-Pesa checkout integration</title>
  <desc id="desc">A phone payment moves securely through verification to a confirmed e-commerce order and reconciliation record.</desc>
  <defs><linearGradient id="bg" x1="0" y1="0" x2="1" y2="1"><stop stop-color="#061b17"/><stop offset="1" stop-color="#111827"/></linearGradient><linearGradient id="line"><stop stop-color="#86efac"/><stop offset="1" stop-color="#10b981"/></linearGradient><pattern id="dots" width="32" height="32" patternUnits="userSpaceOnUse"><circle cx="2" cy="2" r="1.5" fill="#6ee7b7" opacity=".13"/></pattern></defs>
  <rect width="1200" height="800" rx="40" fill="url(#bg)"/><rect width="1200" height="800" rx="40" fill="url(#dots)"/>
  <path d="M375 400h178m94 0h178" stroke="url(#line)" stroke-width="8" stroke-linecap="round"/><path d="m530 378 26 22-26 22m269-44 26 22-26 22" fill="none" stroke="#6ee7b7" stroke-width="8" stroke-linecap="round" stroke-linejoin="round"/>
  <rect x="120" y="138" width="270" height="524" rx="48" fill="#0f172a" stroke="#64748b" stroke-width="4"/><rect x="145" y="192" width="220" height="378" rx="20" fill="#0b2c26"/><rect x="212" y="158" width="86" height="10" rx="5" fill="#475569"/><circle cx="255" cy="615" r="18" fill="none" stroke="#475569" stroke-width="4"/>
  <text x="255" y="250" fill="#a7f3d0" font-family="Arial,sans-serif" font-size="28" font-weight="700" text-anchor="middle">M-PESA</text><text x="255" y="312" fill="white" font-family="Arial,sans-serif" font-size="25" text-anchor="middle">Pay KES</text><text x="255" y="365" fill="white" font-family="Arial,sans-serif" font-size="44" font-weight="700" text-anchor="middle">4,850</text><rect x="180" y="431" width="150" height="62" rx="18" fill="#10b981"/><text x="255" y="471" fill="#052e24" font-family="Arial,sans-serif" font-size="22" font-weight="700" text-anchor="middle">CONFIRM</text>
  <circle cx="600" cy="400" r="86" fill="#052e24" stroke="#34d399" stroke-width="5"/><path d="M562 402l25 25 53-60" fill="none" stroke="#86efac" stroke-width="16" stroke-linecap="round" stroke-linejoin="round"/><text x="600" y="522" fill="#a7f3d0" font-family="Arial,sans-serif" font-size="20" font-weight="700" text-anchor="middle">VERIFIED</text>
  <rect x="824" y="190" width="256" height="420" rx="28" fill="#0f172a" stroke="#64748b" stroke-width="4"/><path d="M865 277h174m-174 66h174m-174 66h115m-115 66h174" stroke="#475569" stroke-width="12" stroke-linecap="round"/><circle cx="1004" cy="409" r="28" fill="#10b981"/><path d="m991 409 10 10 18-22" fill="none" stroke="#052e24" stroke-width="7" stroke-linecap="round" stroke-linejoin="round"/><text x="952" y="248" fill="#d1fae5" font-family="Arial,sans-serif" font-size="25" font-weight="700" text-anchor="middle">ORDER #1048</text><text x="952" y="555" fill="#86efac" font-family="Arial,sans-serif" font-size="20" font-weight="700" text-anchor="middle">PAID &amp; RECONCILED</text>
</svg>
